<?xml version="1.0" encoding="utf-8"?>
<!-- Generator: Adobe Illustrator 21.1.0, SVG Export Plug-In . SVG Version: 6.00 Build 0)  -->
<svg version="1.1" id="Ebene_1" xmlns="http://www.w3.org/2000/svg" xmlns:xlink="http://www.w3.org/1999/xlink" x="0px" y="0px"
	 viewBox="0 0 125.8 29.5" style="enable-background:new 0 0 125.8 29.5;" xml:space="preserve">
<style type="text/css">
	.st0{fill:#EE7A09;}
</style>
<title>lukas_gloor_ux-engineer</title>
<polygon class="st0" points="49.7,28 49.7,28.8 33.1,28.8 33.1,0.8 33.9,0.8 33.9,28 "/>
<path class="st0" d="M15.1,16.5v-0.8h11.3v13.1h-0.8v-7h-0.1c-1.7,5-5.3,7.5-10.8,7.6c-4.2-0.1-7.4-1.5-9.5-4.3
	C3,22.1,1.8,18.5,2,14.7C1.9,10.9,3.1,7.2,5.4,4.3c2.3-2.8,5.7-4.4,9.3-4.2C21.1,0.2,24.8,3.4,26,9.5h-0.8C24,3.9,20.5,1,14.7,0.8
	C11.3,0.7,8,2.2,5.8,4.9c-2.2,2.8-3.3,6.3-3.2,9.8c-0.1,3.5,1,7,3.2,9.8c0.5,0.6,1.1,1.2,1.8,1.7c0.6,0.5,1.3,0.9,2,1.3
	c1.6,0.8,3.4,1.2,5.2,1.2c5.8,0.1,10.7-4.5,10.8-10.4c0-0.1,0-0.3,0-0.4v-1.5L15.1,16.5L15.1,16.5z"/>
<path class="st0" d="M97.4,4.3C95.2,1.5,92.1,0,88,0c-4.1,0.1-7.2,1.5-9.3,4.3c-1.5,2-2.5,4.4-2.9,6.9c-0.4-2.5-1.4-4.8-2.9-6.9
	C70.7,1.5,67.6,0,63.5,0c-4.1,0.1-7.2,1.5-9.3,4.3c-2.2,3-3.4,6.6-3.2,10.4c-0.1,3.7,1,7.3,3.2,10.2c2.1,2.9,5.2,4.4,9.3,4.4
	c4.1-0.1,7.2-1.5,9.4-4.4c1.5-2,2.5-4.4,2.9-6.8c0.2-1.1,0.4-2.3,0.5-3.4c0.1-4.1,1.2-7.5,3.2-10c2.1-2.6,5.2-4,8.5-3.9
	c3.3-0.1,6.5,1.3,8.6,3.9c2.1,2.5,3.1,5.9,3.2,10c0.1,3.6-1,7.1-3.2,10c-2.1,2.6-5.3,4.1-8.6,3.9c-3.3,0.1-6.5-1.3-8.5-3.9
	c-0.4-0.5-1-1.5-1-1.5l-0.4,0.9c0,0,0.4,0.6,0.7,0.9c2.1,2.9,5.2,4.4,9.3,4.4c4.1-0.1,7.2-1.5,9.4-4.4c2.2-3,3.3-6.6,3.2-10.3
	C100.7,10.9,99.5,7.3,97.4,4.3 M72.2,24.7c-2.1,2.6-5.3,4.1-8.6,3.9c-3.3,0.1-6.5-1.3-8.5-3.9c-2.2-2.9-3.3-6.4-3.2-10
	c0.1-4.1,1.2-7.5,3.2-10c2.1-2.6,5.2-4,8.5-3.9c3.3-0.1,6.5,1.3,8.6,3.9c2.1,2.5,3.1,5.9,3.2,10C75.4,18.3,74.3,21.8,72.2,24.7"/>
<path class="st0" d="M107,28.8h-0.8v-28h11.1c5.5,0,8.3,2.4,8.3,7.2c0,3.8-1.9,6.2-5.8,7.2v0.1c1,0.1,1.9,0.4,2.8,0.8
	c0.7,0.4,1.2,0.9,1.6,1.6c0.7,1.7,1,3.5,0.9,5.4c0,0.9,0.1,2,0.2,3.2c0,0.9,0.2,1.7,0.5,2.5H125c-0.2-0.9-0.4-1.8-0.4-2.7
	c-0.1-1.1-0.2-2.2-0.2-3.2c0.2-1.9-0.3-3.8-1.2-5.4c-0.9-1.2-2.9-1.9-6-1.9H107L107,28.8L107,28.8z M107,14.9h10.1
	c1.9,0,3.8-0.5,5.4-1.7c1.6-1.3,2.5-3.3,2.3-5.3c0.1-4.1-2.3-6.2-7.3-6.3h-10.6v13.3H107z"/>
</svg>
