<?xml version="1.0" encoding="utf-8"?>
<!-- Generator: Adobe Illustrator 21.1.0, SVG Export Plug-In . SVG Version: 6.00 Build 0)  -->
<svg version="1.1" id="Ebene_1" xmlns="http://www.w3.org/2000/svg" xmlns:xlink="http://www.w3.org/1999/xlink" x="0px" y="0px"
	 viewBox="0 0 119 29.5" style="enable-background:new 0 0 119 29.5;" xml:space="preserve">
<style type="text/css">
	.st0{fill:#3C3C3B;}
</style>
<title>lukas_gloor_ux-engineer</title>
<polygon class="st0" points="0,0.8 0,28.8 16.6,28.8 16.6,28 0.8,28 0.8,0.8 "/>
<g>
	<defs>
		<rect id="SVGID_1_" width="246.3" height="29.5"/>
	</defs>
	<clipPath id="SVGID_2_">
		<use xlink:href="#SVGID_1_"  style="overflow:visible;"/>
	</clipPath>
</g>
<path class="st0" d="M40,0.8h0.8v17.6c-0.1,7.4-3.4,11.1-10,11.1s-9.9-3.7-10-11.1V0.8h0.8v17.6c0,6.8,3,10.3,9.2,10.3
	c6.1-0.1,9.2-3.5,9.2-10.3L40,0.8z"/>
<polygon class="st0" points="48.4,18.9 48.4,28.8 47.6,28.8 47.6,0.8 48.4,0.8 48.4,17.8 67.2,0.8 68.3,0.8 55.2,12.7 69.1,28.8 
	68.1,28.8 54.6,13.2 "/>
<path class="st0" d="M74.8,19.6l-3.6,9.2h-0.9l11-28h1l10.7,28h-0.8l-3.6-9.2H74.8z M88.3,18.8L81.9,1.5h-0.1l-6.7,17.3L88.3,18.8z"
	/>
<path class="st0" d="M115.5,8.6c-0.1-2.8-1-4.8-2.6-6c-1.8-1.2-4-1.8-6.2-1.7c-2,0-3.9,0.4-5.7,1.4c-0.8,0.5-1.5,1.1-2,1.9
	c-0.6,1-0.9,2.1-0.8,3.2c-0.1,1.1,0.2,2.1,0.8,3c0.5,0.8,1.3,1.4,2.1,1.9c1,0.5,2,0.8,3,1.1l3.4,0.9c1.3,0.3,2.5,0.6,3.7,0.9
	c1,0.3,2,0.7,2.9,1.3c0.8,0.5,1.5,1.2,2,2.1c0.5,1.1,0.7,2.3,0.7,3.5c0.1,2.3-1,4.5-3,5.7c-2,1.2-4.2,1.8-6.5,1.8
	c-2.7,0.1-5.5-0.7-7.7-2.4c-1.9-1.6-2.9-4.1-3-7.6h0.8c0,3.3,0.9,5.6,2.8,7.1c2,1.5,4.5,2.3,7.1,2.1c2.1,0,4.2-0.5,6-1.6
	c1.8-1.1,2.9-3.1,2.8-5.2c0.1-1.2-0.2-2.4-0.9-3.4c-0.6-0.9-1.4-1.6-2.3-2c-1-0.5-2-0.8-3-1.1c-1.1-0.3-2.2-0.5-3.3-0.8
	c-1.1-0.2-2.2-0.5-3.3-0.9c-1-0.3-2-0.7-2.9-1.2c-0.9-0.5-1.6-1.2-2.1-2c-0.6-1-0.9-2.1-0.8-3.3c-0.1-2.3,1.1-4.5,3-5.7
	c0.9-0.6,1.9-1,3-1.2c1.1-0.2,2.1-0.3,3.2-0.3c2.4-0.1,4.8,0.5,6.8,1.8c1.7,1.3,2.7,3.5,2.8,6.6L115.5,8.6z"/>
</svg>
