<svg id="Ebene_1" data-name="Ebene 1" xmlns="http://www.w3.org/2000/svg" xmlns:xlink="http://www.w3.org/1999/xlink" viewBox="0 0 246.28 29.45"><defs><style>.cls-1{fill:none;}.cls-2{fill:#3c3c3b;}.cls-3{clip-path:url(#clip-path);}.cls-4{fill:#ee7a09;}</style><clipPath id="clip-path" transform="translate(-1.65 -0.08)"><rect class="cls-1" x="1.65" y="0.08" width="246.28" height="29.45"/></clipPath></defs><title>lukas_gloor_ux-engineer</title><polygon class="cls-2" points="0 0.76 0 28.78 16.61 28.78 16.61 28.02 0.76 28.02 0.76 0.76 0 0.76"/><g class="cls-3"><path class="cls-2" d="M41.65.84h.76V18.42q-.11,11.11-10,11.11t-10-11.11V.84h.76V18.43q-.06,10.26,9.19,10.34,9.21-.08,9.21-10.34Z" transform="translate(-1.65 -0.08)"/><polygon class="cls-2" points="48.36 18.86 48.36 28.78 47.6 28.78 47.6 0.76 48.36 0.76 48.36 17.81 67.18 0.76 68.33 0.76 55.2 12.68 69.09 28.78 68.05 28.78 54.59 13.16 48.36 18.86"/><path class="cls-2" d="M76.46,19.64l-3.6,9.22H72l11-28h1l10.7,28h-.84l-3.58-9.22ZM90,18.88,83.52,1.61h-.07l-6.7,17.27Z" transform="translate(-1.65 -0.08)"/><path class="cls-2" d="M117.12,8.66q-.18-4.27-2.61-6A10.14,10.14,0,0,0,108.32.93a11.56,11.56,0,0,0-5.65,1.35,5.38,5.38,0,0,0-2,1.92,5.79,5.79,0,0,0-.83,3.18,4.78,4.78,0,0,0,.83,3,6,6,0,0,0,2.11,1.86,13.38,13.38,0,0,0,3,1.05l3.38.9q1.95.44,3.65.9a12.51,12.51,0,0,1,2.93,1.3,5.64,5.64,0,0,1,2,2.07,7.8,7.8,0,0,1,.69,3.55,6.39,6.39,0,0,1-3,5.73,12.05,12.05,0,0,1-6.54,1.8,11.86,11.86,0,0,1-7.66-2.35q-2.92-2.35-3-7.59H99q0,4.94,2.77,7.05a10.79,10.79,0,0,0,7.08,2.13,11.43,11.43,0,0,0,6-1.61,5.7,5.7,0,0,0,2.8-5.18,5.88,5.88,0,0,0-.87-3.39,5.63,5.63,0,0,0-2.28-2,13.75,13.75,0,0,0-3-1.09q-1.67-.4-3.3-.75t-3.27-.86A13.13,13.13,0,0,1,102,12.73a5.57,5.57,0,0,1-2.08-2,5.89,5.89,0,0,1-.84-3.3,6.52,6.52,0,0,1,3-5.73,9.51,9.51,0,0,1,3-1.19,17.4,17.4,0,0,1,3.22-.31A11.08,11.08,0,0,1,115.05,2q2.58,2,2.84,6.61Z" transform="translate(-1.65 -0.08)"/><path class="cls-4" d="M137.22,16.53v-.76h11.3V28.9h-.76v-7h-.07q-2.51,7.48-10.83,7.6-6.28-.08-9.51-4.31a16.43,16.43,0,0,1-3.23-10.37A16,16,0,0,1,127.53,4.4,11.44,11.44,0,0,1,136.85.17q9.55.19,11.26,9.43h-.76Q145.61,1.13,136.86.93A10.74,10.74,0,0,0,128,5a15.2,15.2,0,0,0-3.15,9.83A15.38,15.38,0,0,0,128,24.64a11.63,11.63,0,0,0,1.76,1.69,9.85,9.85,0,0,0,2,1.29A11.31,11.31,0,0,0,137,28.77,10.57,10.57,0,0,0,147.76,18V16.53Z" transform="translate(-1.65 -0.08)"/><polygon class="cls-4" points="170.22 28.02 170.22 28.78 153.61 28.78 153.61 0.76 154.38 0.76 154.38 28.02 170.22 28.02"/><path class="cls-4" d="M229.11,28.86h-.77V.84h11.12q8.26,0,8.29,7.19,0,5.73-5.82,7.21v.08a8.43,8.43,0,0,1,2.8.82,3.83,3.83,0,0,1,1.59,1.61,11.78,11.78,0,0,1,.94,5.35c0,.92.06,2,.17,3.22a8.21,8.21,0,0,0,.48,2.55h-.84a12.29,12.29,0,0,1-.41-2.7c-.12-1.15-.17-2.21-.17-3.18a9,9,0,0,0-1.21-5.39q-1.42-1.84-6-1.88H229.11Zm0-13.91h10.15a8.83,8.83,0,0,0,5.41-1.69A6.27,6.27,0,0,0,247,7.93q.19-6.21-7.34-6.32H229.11Z" transform="translate(-1.65 -0.08)"/><path class="cls-4" d="M219.5,4.39Q216.27.15,210.14.08q-6.11.08-9.27,4.31a15.15,15.15,0,0,0-2.94,6.87,15.37,15.37,0,0,0-2.87-6.87Q191.83.15,185.7.08q-6.11.08-9.27,4.31a16.38,16.38,0,0,0-3.23,10.37A16.23,16.23,0,0,0,176.43,25q3.16,4.33,9.27,4.41,6.13-.08,9.36-4.41a15.34,15.34,0,0,0,2.87-6.83,30.26,30.26,0,0,0,.47-3.45q.13-6.22,3.21-10a10.46,10.46,0,0,1,8.54-3.9,10.62,10.62,0,0,1,8.59,3.9q3.08,3.8,3.16,10a15.71,15.71,0,0,1-3.16,10,10.43,10.43,0,0,1-8.59,3.93,10.28,10.28,0,0,1-8.54-3.93c-.38-.47-1-1.51-1-1.51l-.36.87s.43.63.66.93q3.16,4.33,9.27,4.41,6.13-.08,9.36-4.41a16.49,16.49,0,0,0,3.16-10.27A16.65,16.65,0,0,0,219.5,4.39M194.3,24.74a10.43,10.43,0,0,1-8.59,3.93,10.28,10.28,0,0,1-8.54-3.93,16,16,0,0,1-3.21-10q.13-6.22,3.21-10a10.46,10.46,0,0,1,8.54-3.9,10.62,10.62,0,0,1,8.59,3.9q3.08,3.8,3.16,10a15.72,15.72,0,0,1-3.16,10" transform="translate(-1.65 -0.08)"/></g></svg>